# xmcd
#
# Track frame offsets: 
#        150
#        7425
#        19117
#        37507
#        54902
#        78712
#        98022
#        124455
#        142762
#        165177
#        172357
#        200442
#        230507
#        249320
#
# Disc length: 3549 seconds
#
# Revision: 0
# Processed by: cddbd v1.5.2PL0 Copyright (c) Steve Scherf et al.
# Submitted via: ExactAudioCopy v0.95b4
#
DISCID=af0ddb0e
DTITLE=Eric Clapton - 1992-01-16 - Completely Unplugged
DYEAR=1992
DGENRE=Blues
TTITLE0=Introduction
TTITLE1=Signe
TTITLE2=Before You Accuse Me
TTITLE3=Hey Hey
TTITLE4=Tears In Heaven
TTITLE5=Circus Left Town
TTITLE6=Lonely Stranger
TTITLE7=Nobody Knows You When You're Down And Out
TTITLE8=Layla
TTITLE9=Signe 2
TTITLE10=My Father's Eyes
TTITLE11=Running On Faith
TTITLE12=Walkin' Blues
TTITLE13=Alberta
EXTD=
EXTT0=
EXTT1=
EXTT2=
EXTT3=
EXTT4=
EXTT5=
EXTT6=
EXTT7=
EXTT8=
EXTT9=
EXTT10=
EXTT11=
EXTT12=
EXTT13=
PLAYORDER=
